<?xml version="1.0" encoding="utf-8"?>
<!-- Generator: Adobe Illustrator 26.3.1, SVG Export Plug-In . SVG Version: 6.00 Build 0)  -->
<svg version="1.1" id="Layer_1" xmlns="http://www.w3.org/2000/svg" xmlns:xlink="http://www.w3.org/1999/xlink" x="0px" y="0px"
	 viewBox="0 0 200 200" style="enable-background:new 0 0 200 200;" xml:space="preserve">
<style type="text/css">
	.st0{fill-rule:evenodd;clip-rule:evenodd;fill:#FFFFFF;}
</style>
<g>
	<path class="st0" d="M53.84,164.83c-0.77,0-1.48-0.32-1.99-0.83c-0.51-0.51-0.83-1.22-0.83-1.99V49.27c0-0.77,0.32-1.48,0.83-1.99
		c0.51-0.51,1.22-0.83,1.99-0.83h9.54v-1.44c0-1.82,0.33-3.57,0.92-5.19H53.84c-2.6,0-4.96,1.06-6.68,2.77
		c-1.71,1.71-2.77,4.07-2.77,6.68v112.74c0,2.6,1.06,4.97,2.77,6.67c1.71,1.71,4.07,2.77,6.68,2.77h42.99
		c-1.51-2.07-2.82-4.29-3.92-6.63H53.84z"/>
	<path class="st0" d="M123.55,46.45h9.53c0.77,0,1.48,0.32,1.99,0.83c0.51,0.51,0.83,1.22,0.83,1.99v57.28
		c2.28,0.32,4.49,0.82,6.63,1.49V49.27c0-2.6-1.06-4.96-2.77-6.68c-1.71-1.71-4.07-2.77-6.68-2.77h-10.46
		c0.59,1.62,0.92,3.37,0.92,5.19V46.45z"/>
	<path class="st0" d="M119.03,45.01c0-5.82-4.76-10.58-10.58-10.58h-2.61c0-6.83-5.54-12.37-12.37-12.37
		c-6.83,0-12.37,5.54-12.37,12.37h-2.61c-5.82,0-10.58,4.76-10.58,10.58v5.29h51.13V45.01z M93.46,41.85c-4.1,0-7.42-3.32-7.42-7.42
		S89.36,27,93.46,27c4.1,0,7.42,3.32,7.42,7.42S97.56,41.85,93.46,41.85z"/>
	<path class="st0" d="M79.57,69.22v5.7c0,0.88,0.72,1.59,1.59,1.59h39.82c0.87,0,1.59-0.72,1.59-1.59v-5.7
		c0-0.87-0.72-1.59-1.59-1.59H81.16C80.28,67.63,79.57,68.35,79.57,69.22z"/>
	<path class="st0" d="M64.03,75c0,0.83,0.68,1.51,1.51,1.51h5.87c0.83,0,1.51-0.68,1.51-1.51v-5.87c0-0.83-0.68-1.51-1.51-1.51
		h-5.87c-0.83,0-1.51,0.68-1.51,1.51V75z"/>
	<path class="st0" d="M122.56,87.34c0-0.88-0.72-1.59-1.59-1.59H81.16c-0.87,0-1.59,0.72-1.59,1.59v5.7c0,0.87,0.72,1.59,1.59,1.59
		h39.82c0.87,0,1.59-0.72,1.59-1.59V87.34z"/>
	<path class="st0" d="M72.92,87.26c0-0.83-0.68-1.51-1.51-1.51h-5.87c-0.83,0-1.51,0.68-1.51,1.51v5.87c0,0.83,0.68,1.51,1.51,1.51
		h5.87c0.83,0,1.51-0.68,1.51-1.51V87.26z"/>
	<path class="st0" d="M122.56,106.86v-1.39c0-0.87-0.72-1.59-1.59-1.59H81.16c-0.87,0-1.59,0.72-1.59,1.59v5.7
		c0,0.87,0.72,1.59,1.59,1.59h26.64C112.21,109.9,117.2,107.86,122.56,106.86z"/>
	<path class="st0" d="M72.92,105.38c0-0.83-0.68-1.51-1.51-1.51h-5.87c-0.83,0-1.51,0.68-1.51,1.51v5.87c0,0.83,0.68,1.51,1.51,1.51
		h5.87c0.83,0,1.51-0.68,1.51-1.51V105.38z"/>
	<path class="st0" d="M97.71,122H81.16c-0.87,0-1.59,0.71-1.59,1.59v5.7c0,0.88,0.72,1.59,1.59,1.59h11.26
		C93.81,127.69,95.59,124.71,97.71,122z"/>
	<path class="st0" d="M72.92,123.51c0-0.83-0.68-1.51-1.51-1.51h-5.87c-0.83,0-1.51,0.68-1.51,1.51v5.87c0,0.83,0.68,1.51,1.51,1.51
		h5.87c0.83,0,1.51-0.68,1.51-1.51V123.51z"/>
	<path class="st0" d="M81.16,140.12c-0.87,0-1.59,0.72-1.59,1.59v5.7c0,0.87,0.72,1.59,1.59,1.59h7.88
		c-0.02-0.56-0.04-1.12-0.04-1.69c0-2.45,0.22-4.86,0.63-7.19H81.16z"/>
	<path class="st0" d="M71.41,140.12h-5.87c-0.83,0-1.51,0.68-1.51,1.51v5.87c0,0.83,0.68,1.51,1.51,1.51h5.87
		c0.83,0,1.51-0.68,1.51-1.51v-5.87C72.92,140.8,72.24,140.12,71.41,140.12z"/>
	<path class="st0" d="M130.16,112.19c-19.39,0-35.12,15.73-35.12,35.12c0,19.4,15.73,35.12,35.12,35.12
		c19.39,0,35.12-15.73,35.12-35.12C165.28,127.92,149.55,112.19,130.16,112.19z M152.29,138.69l-27.53,23.38l0,0
		c-1.6,1.36-3.99,1.26-5.48-0.27l-11.54-11.84c-1.55-1.59-1.51-4.14,0.08-5.68c1.59-1.55,4.14-1.51,5.69,0.08l8.92,9.15l24.67-20.96
		c1.7-1.44,4.23-1.22,5.67,0.47C154.19,134.72,153.98,137.26,152.29,138.69z"/>
</g>
</svg>
